[center][size=5][b]Underworld - Rise Of The Lycans 1080p[ENG(5.1)-HINDI(5.1)] Mr.A~{PHDR}~[/b][/size]


The prequel story traces the origins of the centuries-old blood feud between the aristocratic vampires and their onetime slaves, the Lycans. In the Dark Ages, a young Lycan named Lucian emerges as a powerful leader who rallies the werewolves to rise up against Viktor, the cruel vampire king who has enslaved them. Lucian is joined by his secret lover, Sonja, in his battle against the Vampire army and his struggle for Lycan freedom.

Cast overview, first billed only:
Michael Sheen 		...	Lucian
Bill Nighy 		... 	Viktor
Rhona Mitra 		... 	Sonja
Steven Mackintosh 	...	Tannis
Kevin Grevioux 		... 	Raze
David Aston 		... 	Coloman
Geraldine Brophy 	...Nobleman's Wife
Leighton Cardno 	...Fearful Lycan
Alex Carroll 		...	Young Lucian (as Alexander Carroll)
Elizabeth Hawthorne 	...	Orsova
Jason Hood 		...	Death Dealer
Mark Mitchinson 	...	Nobleman
Tania Nolan 		... 	Luka
Craig Parker 		... 	Sabas
Timothy Raby 		... 	Janosh (as Tim Raby) 

 

[img]http://img21.imageshack.us/img21/4868/zvbzx21.png[/img]

General

Complete name                            : Underworld - Rise Of The Lycans 1080p[ENG(5.1)-HINDI(5.1)] Mr.A~{PHDR}~
Format                                   : Matroska
Format version                           : Version 2
File size                                : 2.79 GiB
Duration                                 : 1h 32mn
Overall bit rate                         : 4 312 Kbps



Video
ID                                       : 1
Format                                   : AVC
Format/Info                              : Advanced Video Codec
Format profile                           : High@L4.1
Format settings, CABAC                   : Yes
Format settings, ReFrames                : 4 frames
Muxing mode                              : Header stripping
Codec ID                                 : V_MPEG4/ISO/AVC
Duration                                 : 1h 32mn
Bit rate                                 : 3 500 Kbps
Width                                    : 1 920 pixels
Height                                   : 800 pixels
Display aspect ratio                     : 2.40:1
Frame rate                               : 23.976 fps
Color space                              : YUV
Chroma subsampling                       : 4:2:0
Bit depth                                : 8 bits
Scan type                                : Progressive
Bits/(Pixel*Frame)                       : 0.095
Stream size                              : 2.19 GiB (79%)
Title                                    : Mr.A
Language                                 : English
Default                                  : Yes
Forced                                   : No

Audio #1
ID                                       : 2
Format                                   : AC-3
Format/Info                              : Audio Coding 3
Mode extension                           : CM (complete main)
Muxing mode                              : Header stripping
Codec ID                                 : A_AC3
Duration                                 : 1h 32mn
Bit rate mode                            : Constant
Bit rate                                 : 448 Kbps
Channel(s)                               : 6 channels
Channel positions                        : Front: L C R, Side: L R, LFE
Sampling rate                            : 48.0 KHz
Bit depth                                : 16 bits
Compression mode                         : Lossy
Stream size                              : 296 MiB (10%)
Title                                    : Mr.A
Language                                 : English
Default                                  : Yes
Forced                                   : No

Audio #2
ID                                       : 3
Format                                   : AC-3
Format/Info                              : Audio Coding 3
Mode extension                           : CM (complete main)
Muxing mode                              : Header stripping
Codec ID                                 : A_AC3
Duration                                 : 1h 32mn
Bit rate mode                            : Constant
Bit rate                                 : 384 Kbps
Channel(s)                               : 6 channels
Channel positions                        : Front: L C R, Side: L R, LFE
Sampling rate                            : 48.0 KHz
Bit depth                                : 16 bits
Compression mode                         : Lossy
Stream size                              : 254 MiB (9%)
Title                                    : Mr.A
Language                                 : Hindi
Default                                  : No


[img=SCREENS]http://www.pix2links.com/images/48140134537041581883.gif[/img]



[IMG]http://img515.imageshack.us/img515/3739/underworldriseofthelycahv.jpg[/IMG]
[IMG]http://img846.imageshack.us/img846/5225/underworldriseofthelycan.jpg[/IMG]
[IMG]http://img20.imageshack.us/img20/5788/underworldriseofthelyca.jpg[/IMG]
[IMG]http://img684.imageshack.us/img684/7218/underworldriseofthelycah.jpg[/IMG]


[img]http://www.pix2links.com/images/71807947980670826841.gif[/img]

[img]http://www.pix2links.com/images/13560747731827144040.gif[/img]

[img]http://img685.imageshack.us/img685/1050/hddesirockers.png[/img]



[IMG]http://img5.imageshack.us/img5/5900/cooltext571143398.png[/IMG]